<svg xmlns:xlink="http://www.w3.org/1999/xlink" xmlns="http://www.w3.org/2000/svg" width="41" height="40" viewBox="0 0 41 40" fill="none">
<path d="M35.2526 16.6667H5.2526C4.33594 16.6667 3.58594 17.4167 3.58594 18.3334V26.9834C3.58594 27.3168 3.6026 27.6501 3.63594 27.9834C3.96927 33.1168 7.13594 36.2834 12.2693 36.6167C12.6026 36.6501 12.9359 36.6668 13.2693 36.6668H27.2359C27.5693 36.6668 27.9026 36.6501 28.2359 36.6167C33.3693 36.2834 36.5359 33.1168 36.8693 27.9834C36.9026 27.6501 36.9193 27.3168 36.9193 26.9834V18.3334C36.9193 17.4167 36.1693 16.6667 35.2526 16.6667ZM13.5859 26.9167C14.1526 27.7501 14.9193 28.4334 15.8026 28.8834C16.4359 29.1834 16.6859 29.9334 16.3693 30.5667C16.1526 31.0001 15.7026 31.2501 15.2526 31.2501C15.0693 31.2501 14.8693 31.2001 14.7026 31.1167C13.4026 30.4834 12.3026 29.5001 11.5193 28.3167C10.8526 27.3167 10.8526 26.0167 11.5193 25.0167C12.3026 23.8334 13.4026 22.8501 14.7026 22.2167C15.3193 21.9001 16.0693 22.1501 16.3693 22.7667C16.6859 23.4001 16.4359 24.1501 15.8026 24.4501C14.9193 24.9001 14.1526 25.5834 13.5859 26.4167C13.4859 26.5667 13.4859 26.7667 13.5859 26.9167ZM29.3359 28.3167C28.5359 29.5001 27.4359 30.4834 26.1526 31.1167C25.9693 31.2001 25.7859 31.2501 25.6026 31.2501C25.1359 31.2501 24.7026 31.0001 24.4859 30.5667C24.1693 29.9334 24.4193 29.1834 25.0359 28.8834C25.9359 28.4334 26.7026 27.7501 27.2526 26.9167C27.3693 26.7667 27.3693 26.5667 27.2526 26.4167C26.7026 25.5834 25.9359 24.9001 25.0359 24.4501C24.4193 24.1501 24.1693 23.4001 24.4859 22.7667C24.7859 22.1501 25.5359 21.9001 26.1526 22.2167C27.4359 22.8501 28.5359 23.8334 29.3359 25.0167C30.0026 26.0167 30.0026 27.3167 29.3359 28.3167Z" fill="#65E6CF"/>
<path d="M36.9193 13.0166V13.3333C36.9193 14.2499 36.1693 14.9999 35.2526 14.9999L5.2526 15.0166C4.33594 15.0166 3.58594 14.2666 3.58594 13.3499V13.0166C3.58594 12.6833 3.6026 12.3499 3.63594 12.0166C3.96927 6.88325 7.13594 3.71659 12.2693 3.38325C12.6026 3.34992 12.9359 3.33325 13.2693 3.33325H27.2359C27.5693 3.33325 27.9026 3.34992 28.2359 3.38325C33.3693 3.71659 36.5359 6.88325 36.8693 12.0166C36.9026 12.3499 36.9193 12.6833 36.9193 13.0166Z" fill="#65E6CF"/>
</svg>