<svg xmlns:xlink="http://www.w3.org/1999/xlink" xmlns="http://www.w3.org/2000/svg" width="40" height="40" viewBox="0 0 40 40" fill="none">
<path d="M32.9824 7.03345C28.0491 2.11678 20.0491 2.11678 15.1491 7.03345C11.6991 10.4501 10.6658 15.3668 11.9991 19.7001L4.16577 27.5334C3.61577 28.1001 3.23244 29.2168 3.3491 30.0168L3.8491 33.6501C4.03244 34.8501 5.1491 35.9834 6.3491 36.1501L9.98244 36.6501C10.7824 36.7668 11.8991 36.4001 12.4658 35.8168L13.8324 34.4501C14.1658 34.1334 14.1658 33.6001 13.8324 33.2668L10.5991 30.0334C10.1158 29.5501 10.1158 28.7501 10.5991 28.2668C11.0824 27.7834 11.8824 27.7834 12.3658 28.2668L15.6158 31.5168C15.9324 31.8334 16.4658 31.8334 16.7824 31.5168L20.3158 28.0001C24.6324 29.3501 29.5491 28.3001 32.9824 24.8834C37.8991 19.9668 37.8991 11.9501 32.9824 7.03345ZM24.1658 20.0001C21.8658 20.0001 19.9991 18.1334 19.9991 15.8334C19.9991 13.5334 21.8658 11.6668 24.1658 11.6668C26.4658 11.6668 28.3324 13.5334 28.3324 15.8334C28.3324 18.1334 26.4658 20.0001 24.1658 20.0001Z" fill="#65E6CF"/>
</svg>