<svg xmlns:xlink="http://www.w3.org/1999/xlink" xmlns="http://www.w3.org/2000/svg" width="40" height="40" viewBox="0 0 40 40" fill="none">
<path d="M25.432 36.6666C25.332 36.6666 25.2153 36.6499 25.1153 36.6166C21.7653 35.6666 18.2486 35.6666 14.8986 36.6166C14.282 36.7833 13.632 36.4333 13.4653 35.8166C13.282 35.1999 13.6486 34.5499 14.2653 34.3833C18.032 33.3166 21.9986 33.3166 25.7653 34.3833C26.382 34.5666 26.7486 35.1999 26.5653 35.8166C26.3986 36.3333 25.932 36.6666 25.432 36.6666Z" fill="#65E6CF"/>
<path d="M32.0172 10.6C30.2839 7.10002 26.9339 4.51668 23.0505 3.66668C18.9839 2.76668 14.8172 3.73335 11.6339 6.30002C8.43385 8.85002 6.61719 12.6667 6.61719 16.75C6.61719 21.0667 9.20052 25.5834 13.1005 28.2V29.5834C13.0839 30.05 13.0672 30.7667 13.6339 31.35C14.2172 31.95 15.0839 32.0167 15.7672 32.0167H24.3172C25.2172 32.0167 25.9005 31.7667 26.3672 31.3C27.0005 30.65 26.9839 29.8167 26.9672 29.3667V28.2C32.1339 24.7167 35.3839 17.3667 32.0172 10.6ZM22.8672 19.3667L21.0839 22.4667C20.8505 22.8667 20.4339 23.1 20.0005 23.1C19.7839 23.1 19.5672 23.05 19.3839 22.9334C18.7839 22.5834 18.5839 21.8167 18.9172 21.2334L20.3339 18.7667H18.9339C18.1005 18.7667 17.4172 18.4 17.0505 17.7834C16.6839 17.15 16.7172 16.3834 17.1339 15.65L18.9172 12.55C19.2672 11.95 20.0339 11.75 20.6172 12.0834C21.2172 12.4334 21.4172 13.2 21.0839 13.7834L19.6672 16.25H21.0672C21.9005 16.25 22.5839 16.6167 22.9505 17.2334C23.3172 17.8667 23.2839 18.65 22.8672 19.3667Z" fill="#65E6CF"/>
</svg>