<svg xmlns:xlink="http://www.w3.org/1999/xlink" xmlns="http://www.w3.org/2000/svg" width="40" height="40" viewBox="0 0 40 40" fill="none">
<path d="M34.8484 18.5334V11.2168C34.8484 9.85011 33.8151 8.30011 32.5318 7.78345L23.2484 3.98345C21.1651 3.13345 18.8151 3.13345 16.7318 3.98345L7.44844 7.78345C6.18177 8.30011 5.14844 9.85011 5.14844 11.2168V18.5334C5.14844 26.6834 11.0651 34.3168 19.1484 36.5501C19.6984 36.7001 20.2984 36.7001 20.8484 36.5501C28.9318 34.3168 34.8484 26.6834 34.8484 18.5334ZM21.2484 21.4501V25.8334C21.2484 26.5168 20.6818 27.0834 19.9984 27.0834C19.3151 27.0834 18.7484 26.5168 18.7484 25.8334V21.4501C17.0651 20.9168 15.8318 19.3501 15.8318 17.5001C15.8318 15.2001 17.6984 13.3334 19.9984 13.3334C22.2984 13.3334 24.1651 15.2001 24.1651 17.5001C24.1651 19.3668 22.9318 20.9168 21.2484 21.4501Z" fill="#65E6CF"/>
</svg>